<svg width="384" height="272" viewBox="0 0 384 272" fill="none" xmlns="http://www.w3.org/2000/svg">
<line x1="113.386" y1="106.05" x2="163.93" y2="106.04" stroke="#5452F6" stroke-width="1.04223"/>
<path d="M158.718 101.298L164.19 106.247L158.72 110.938" stroke="#5452F6" stroke-width="1.04223" stroke-linecap="round" stroke-linejoin="round"/>
<circle cx="111.041" cy="106.311" r="2.86614" stroke="#5452F6" stroke-width="1.04223"/>
<path d="M267.832 107.3L297.114 107.294C308.626 107.292 317.957 97.9573 317.954 86.4451L317.949 59.8204" stroke="#5452F6" stroke-width="1.04223" stroke-linecap="round" stroke-linejoin="round"/>
<path d="M317.552 59.2158L313.776 63.3793C313.473 63.7143 313.71 64.2506 314.162 64.2505L321.507 64.249C321.952 64.2489 322.192 63.7266 321.902 63.3887L318.333 59.2266C318.129 58.9885 317.762 58.9834 317.552 59.2158Z" fill="#5452F6"/>
<circle cx="265.488" cy="107.561" r="2.86614" transform="rotate(-90.0117 265.488 107.561)" fill="#5452F6"/>
<line x1="210.931" y1="24.1395" x2="272.73" y2="24.1269" stroke="#5452F6" stroke-width="1.04223" stroke-dasharray="2.61 4.17"/>
<path d="M267.518 18.7598L272.99 23.7093L267.52 28.4004" stroke="#5452F6" stroke-width="1.04223" stroke-linecap="round" stroke-linejoin="round"/>
<circle cx="208.586" cy="24.4007" r="2.86614" stroke="#5452F6" stroke-width="1.04223"/>
<path d="M147.621 213.236L147.617 196.397C147.616 190.641 152.282 185.973 158.038 185.972L271.733 185.949C277.489 185.948 282.156 190.613 282.158 196.369L282.161 213.209" stroke="#5452F6" stroke-width="1.04223"/>
<line x1="214.312" y1="185.713" x2="214.306" y2="157.052" stroke="#5452F6" stroke-width="1.04223"/>
<path d="M287.124 207.997L282.301 213.209L277.731 207.999" stroke="#5452F6" stroke-width="1.04223" stroke-linecap="round" stroke-linejoin="round"/>
<path d="M152.584 208.024L147.761 213.237L143.19 208.026" stroke="#5452F6" stroke-width="1.04223" stroke-linecap="round" stroke-linejoin="round"/>
<circle cx="214.045" cy="154.186" r="2.86614" stroke="#5452F6" stroke-width="1.04223"/>
<g filter="url(#filter0_b_701_10)">
<path fill-rule="evenodd" clip-rule="evenodd" d="M297.637 0C291.766 0 287.007 4.75915 287.007 10.6299V38.1425C287.007 44.0133 291.766 48.7724 297.637 48.7724H373.297C379.167 48.7724 383.926 44.0133 383.926 38.1425V10.6299C383.926 4.75916 379.167 0 373.297 0H297.637ZM10.6298 81.2873C4.75912 81.2873 -4.01088e-05 86.0465 -4.01088e-05 91.9172V119.43C-4.01088e-05 125.301 4.75913 130.06 10.6299 130.06H86.2896C92.1603 130.06 96.9195 125.301 96.9195 119.43V91.9172C96.9195 86.0465 92.1603 81.2873 86.2896 81.2873H10.6298ZM147.568 223.228C134.1 223.228 123.181 234.146 123.181 247.614C123.181 261.082 134.1 272 147.568 272C161.036 272 171.954 261.082 171.954 247.614C171.954 234.146 161.036 223.228 147.568 223.228ZM258.244 247.614C258.244 234.146 269.162 223.228 282.63 223.228C296.098 223.228 307.016 234.146 307.016 247.614C307.016 261.082 296.098 272 282.63 272C269.162 272 258.244 261.082 258.244 247.614ZM123.181 19.3839C123.181 13.5132 127.941 8.754 133.811 8.754H185.71C191.581 8.754 196.34 13.5132 196.34 19.3839V27.5126C196.34 33.3833 191.581 38.1425 185.71 38.1425H133.811C127.941 38.1425 123.181 33.3833 123.181 27.5126V19.3839ZM216.331 71.1114C214.703 69.4837 212.063 69.4842 210.435 71.1126L178.036 103.526C176.408 105.154 176.408 107.794 178.037 109.421L210.45 141.821C212.078 143.449 214.718 143.448 216.346 141.82L248.745 109.407C250.373 107.778 250.372 105.139 248.744 103.511L216.331 71.1114Z" fill="url(#paint0_radial_701_10)"/>
</g>
<path d="M46.8987 71.9082L46.8986 44.3021C46.8985 32.7915 56.2284 23.4597 67.739 23.4573L108.124 23.4491" stroke="#5452F6" stroke-width="1.04223" stroke-linecap="round" stroke-linejoin="round"/>
<path d="M108.729 23.846L104.567 27.6231C104.232 27.9269 103.696 27.6894 103.696 27.2373L103.694 19.8929C103.694 19.4477 104.216 19.2074 104.554 19.4971L108.718 23.0643C108.956 23.2684 108.961 23.6352 108.729 23.846Z" fill="#5452F6"/>
<circle r="2.86614" transform="matrix(1 -0.000204516 -0.000204516 -1 46.6369 71.6484)" fill="#5452F6"/>
<path d="M23.1514 103.125V111.296H25.0075V108.051H28.5798V106.347H25.0075V104.829H29.2569V103.125H23.1514ZM31.7756 111.296V105.226H30.0245V111.296H31.7756ZM30.1179 104.49C30.328 104.689 30.5848 104.794 30.9 104.794C31.2152 104.794 31.4721 104.689 31.6705 104.49C31.8807 104.292 31.9857 104.035 31.9857 103.72C31.9857 103.405 31.8807 103.148 31.6705 102.949C31.4721 102.751 31.2152 102.646 30.9 102.646C30.5848 102.646 30.328 102.751 30.1179 102.949C29.9194 103.148 29.8144 103.405 29.8144 103.72C29.8144 104.035 29.9194 104.292 30.1179 104.49ZM34.5117 105.226H32.7606V111.296H34.5117V108.028C34.5117 107.316 35.0371 106.779 35.7375 106.779C35.9943 106.779 36.2045 106.837 36.3679 106.942V105.074C35.539 105.074 34.9203 105.331 34.5117 105.856V105.226ZM41.6732 106.732C41.5214 105.693 40.6575 105.074 39.2449 105.074C37.7623 105.074 36.7817 105.681 36.7817 107.024C36.7817 107.923 37.2487 108.46 38.3811 108.775L39.4901 109.102C39.8987 109.218 40.0972 109.37 40.0972 109.569C40.0972 109.849 39.7703 110.012 39.3033 110.012C38.7313 110.012 38.3811 109.814 38.2643 109.405L36.6533 109.627C36.8284 110.783 37.739 111.448 39.2683 111.448C40.7743 111.448 41.7666 110.771 41.7666 109.499C41.7666 108.576 41.2646 108.016 40.0388 107.631L38.9531 107.28C38.6379 107.164 38.4745 107.024 38.4745 106.872C38.4745 106.603 38.7079 106.475 39.1632 106.475C39.6652 106.475 39.9687 106.65 40.0738 106.989L41.6732 106.732ZM42.1339 106.743H42.9628V109.358C42.9628 109.907 43.1612 110.374 43.5698 110.748C43.9784 111.11 44.4921 111.296 45.0875 111.296H46.0914V109.662H45.3793C44.9941 109.662 44.7139 109.394 44.7139 109.02V106.743H46.0914V105.226H44.7139V104.047H42.9628V105.226H42.1339V106.743ZM55.5274 104.887C55.3757 104.339 55.0371 103.883 54.4884 103.521C53.9514 103.16 53.3093 102.973 52.5739 102.973C51.745 102.973 51.0679 103.206 50.5426 103.673C50.0289 104.128 49.7721 104.736 49.7721 105.483C49.7721 105.961 49.9238 106.382 50.099 106.673C50.2741 106.965 50.6827 107.245 50.9278 107.421C51.0562 107.502 51.243 107.584 51.4882 107.689L52.0602 107.899C52.2003 107.934 52.4104 108.004 52.6789 108.086L52.7957 108.121C53.2626 108.273 53.5428 108.366 53.8113 108.6C53.9514 108.716 54.0215 108.845 54.0215 108.997C54.0215 109.429 53.4844 109.744 52.819 109.744C52.0836 109.744 51.5232 109.382 51.3948 108.915L49.5386 109.358C49.7137 109.977 50.0873 110.479 50.6827 110.864C51.278 111.25 51.9902 111.448 52.819 111.448C53.7179 111.448 54.4534 111.215 55.0254 110.736C55.5975 110.257 55.8776 109.627 55.8776 108.833C55.8309 107.829 55.434 107.257 54.7569 106.895C54.29 106.615 54.0331 106.533 53.5311 106.382C52.8774 106.183 52.4688 106.055 52.3054 105.996C51.8501 105.81 51.6283 105.588 51.6283 105.343C51.6283 104.957 52.0485 104.677 52.6089 104.677C53.1576 104.677 53.5895 104.957 53.6946 105.319L55.5274 104.887ZM56.1679 106.743H56.9968V109.358C56.9968 109.907 57.1953 110.374 57.6039 110.748C58.0125 111.11 58.5261 111.296 59.1215 111.296H60.1255V109.662H59.4133C59.0281 109.662 58.7479 109.394 58.7479 109.02V106.743H60.1255V105.226H58.7479V104.047H56.9968V105.226H56.1679V106.743ZM67.0385 108.892C67.0852 108.693 67.1085 108.483 67.1085 108.261C67.1085 107.362 66.805 106.603 66.1862 105.996C65.5675 105.378 64.8087 105.074 63.8981 105.074C62.9759 105.074 62.217 105.378 61.5983 105.996C60.9796 106.603 60.6761 107.362 60.6761 108.261C60.6761 109.172 60.9913 109.931 61.6217 110.538C62.2521 111.145 63.0459 111.448 63.9915 111.448C65.2873 111.448 66.3497 110.818 66.8984 109.802L65.2056 109.417C64.9021 109.779 64.5052 109.954 64.0032 109.954C63.2911 109.954 62.719 109.534 62.5206 108.892H67.0385ZM62.5322 107.596C62.7307 106.977 63.2794 106.568 63.8981 106.568C64.5519 106.568 65.1006 106.977 65.3224 107.596H62.5322ZM69.5683 113.923V110.888C70.0703 111.261 70.6189 111.448 71.2377 111.448C72.0549 111.448 72.7436 111.145 73.2923 110.538C73.841 109.919 74.1212 109.16 74.1212 108.261C74.1212 107.351 73.841 106.592 73.2923 105.985C72.7436 105.378 72.0549 105.074 71.2377 105.074C70.6073 105.074 70.0469 105.261 69.5683 105.634V105.226H67.8172V113.923H69.5683ZM70.9458 106.802C71.693 106.802 72.2883 107.432 72.2883 108.273C72.2883 108.681 72.1599 109.02 71.8914 109.3C71.6346 109.58 71.3194 109.72 70.9458 109.72C70.187 109.72 69.5916 109.078 69.5916 108.273C69.5916 107.432 70.187 106.802 70.9458 106.802Z" fill="white"/>
<path d="M139.06 20.6219L138.336 20.8332C138.288 20.6164 138.147 20.4349 137.914 20.2886C137.686 20.1368 137.418 20.061 137.109 20.061C136.768 20.061 136.486 20.145 136.264 20.313C136.041 20.4755 135.93 20.6815 135.93 20.9307C135.93 21.2017 136.082 21.413 136.386 21.5648C136.624 21.6786 136.99 21.7978 137.483 21.9225C137.884 22.0254 138.196 22.1311 138.418 22.2395C138.938 22.4833 139.212 22.9087 139.239 23.5157C139.239 24.0251 139.044 24.4369 138.653 24.7513C138.274 25.0656 137.781 25.2227 137.174 25.2227C136.627 25.2227 136.161 25.0954 135.776 24.8407C135.391 24.5914 135.147 24.2662 135.044 23.8652L135.776 23.6457C135.819 23.895 135.971 24.1037 136.231 24.2717C136.497 24.4342 136.811 24.5155 137.174 24.5155C137.553 24.5155 137.87 24.4288 138.125 24.2554C138.38 24.0766 138.507 23.849 138.507 23.5726C138.507 23.2908 138.372 23.0794 138.101 22.9385C137.862 22.8139 137.589 22.7136 137.28 22.6378L136.938 22.5484L136.621 22.4508L136.288 22.337C136.272 22.3316 136.247 22.3235 136.215 22.3126C136.188 22.2964 136.153 22.2801 136.109 22.2639C136.066 22.2422 136.028 22.2232 135.995 22.207C135.86 22.1419 135.7 22.0254 135.516 21.8574C135.332 21.6732 135.223 21.3805 135.191 20.9795C135.191 20.4972 135.369 20.107 135.727 19.809C136.09 19.5055 136.548 19.3538 137.101 19.3538C137.599 19.3538 138.025 19.473 138.377 19.7114C138.735 19.9445 138.962 20.2479 139.06 20.6219ZM144.305 23.2556H140.672C140.721 23.6349 140.889 23.9519 141.176 24.2066C141.458 24.4559 141.804 24.5805 142.216 24.5805C142.753 24.5805 143.17 24.3773 143.468 23.9709L144.135 24.1822C143.94 24.5074 143.671 24.7621 143.33 24.9463C142.994 25.1306 142.623 25.2227 142.216 25.2227C141.577 25.2227 141.04 25.0141 140.607 24.5968C140.179 24.1741 139.965 23.6485 139.965 23.0198C139.965 22.3912 140.173 21.8683 140.591 21.451C141.008 21.0283 141.525 20.8169 142.143 20.8169C142.766 20.8169 143.284 21.0283 143.696 21.451C144.113 21.8683 144.322 22.3912 144.322 23.0198C144.322 23.0361 144.316 23.1147 144.305 23.2556ZM140.68 22.7028H143.614C143.549 22.3397 143.379 22.039 143.102 21.8005C142.831 21.5675 142.506 21.451 142.127 21.451C141.758 21.451 141.441 21.5675 141.176 21.8005C140.91 22.0335 140.745 22.3343 140.68 22.7028ZM149.192 22.0932L148.51 22.2964C148.385 22.0525 148.203 21.8601 147.965 21.7192C147.732 21.5729 147.469 21.4998 147.177 21.4998C146.748 21.4998 146.393 21.6461 146.112 21.9387C145.824 22.2259 145.681 22.5863 145.681 23.0198C145.681 23.4479 145.824 23.811 146.112 24.1091C146.399 24.3963 146.754 24.5399 147.177 24.5399C147.469 24.5399 147.732 24.4695 147.965 24.3286C148.203 24.1822 148.385 23.9871 148.51 23.7433L149.192 23.9465C149.019 24.3421 148.751 24.6537 148.388 24.8813C148.03 25.1089 147.626 25.2227 147.177 25.2227C146.553 25.2227 146.028 25.0141 145.6 24.5968C145.182 24.1687 144.974 23.643 144.974 23.0198C144.974 22.3912 145.182 21.8683 145.6 21.451C146.022 21.0283 146.548 20.8169 147.177 20.8169C147.626 20.8169 148.03 20.9307 148.388 21.1583C148.751 21.386 149.019 21.6976 149.192 22.0932ZM150.466 24.5968C150.048 24.1687 149.84 23.643 149.84 23.0198C149.84 22.3912 150.048 21.8683 150.466 21.451C150.888 21.0283 151.414 20.8169 152.043 20.8169C152.671 20.8169 153.197 21.0283 153.62 21.451C154.042 21.8683 154.254 22.3912 154.254 23.0198C154.254 23.6485 154.042 24.1741 153.62 24.5968C153.192 25.0141 152.666 25.2227 152.043 25.2227C151.419 25.2227 150.894 25.0141 150.466 24.5968ZM152.043 24.5399C152.471 24.5399 152.828 24.3963 153.116 24.1091C153.403 23.811 153.547 23.4479 153.547 23.0198C153.547 22.5863 153.403 22.2259 153.116 21.9387C152.828 21.6461 152.471 21.4998 152.043 21.4998C151.615 21.4998 151.26 21.6461 150.978 21.9387C150.691 22.2259 150.547 22.5863 150.547 23.0198C150.547 23.4479 150.691 23.811 150.978 24.1091C151.265 24.3963 151.62 24.5399 152.043 24.5399ZM155.187 25.1333V20.9064H155.87V21.6136C156.206 21.0825 156.707 20.8169 157.374 20.8169C157.862 20.8169 158.265 20.9768 158.585 21.2965C158.91 21.6108 159.073 22.0119 159.073 22.4996V25.1333H158.39V22.6784C158.39 22.337 158.274 22.0498 158.041 21.8168C157.813 21.5838 157.528 21.4672 157.187 21.4672C156.819 21.4672 156.507 21.5865 156.252 21.8249C155.998 22.0633 155.87 22.3533 155.87 22.6947V25.1333H155.187ZM162.074 20.8169C162.708 20.8169 163.223 21.0473 163.618 21.5079V19.0367H164.301V25.1333H163.618V24.5318C163.223 24.9924 162.708 25.2227 162.074 25.2227C161.483 25.2227 160.987 25.0141 160.586 24.5968C160.191 24.1795 159.993 23.6539 159.993 23.0198C159.993 22.3858 160.191 21.8628 160.586 21.451C160.982 21.0283 161.478 20.8169 162.074 20.8169ZM162.147 21.4998C161.74 21.4998 161.396 21.6461 161.115 21.9387C160.838 22.2259 160.7 22.5863 160.7 23.0198C160.7 23.4534 160.838 23.8164 161.115 24.1091C161.402 24.3963 161.746 24.5399 162.147 24.5399C162.559 24.5399 162.903 24.3963 163.179 24.1091C163.461 23.8219 163.602 23.4588 163.602 23.0198C163.602 22.5809 163.461 22.2205 163.179 21.9387C162.903 21.6461 162.559 21.4998 162.147 21.4998ZM171.535 20.6219L170.812 20.8332C170.763 20.6164 170.622 20.4349 170.389 20.2886C170.161 20.1368 169.893 20.061 169.584 20.061C169.243 20.061 168.961 20.145 168.739 20.313C168.517 20.4755 168.406 20.6815 168.406 20.9307C168.406 21.2017 168.557 21.413 168.861 21.5648C169.099 21.6786 169.465 21.7978 169.958 21.9225C170.359 22.0254 170.671 22.1311 170.893 22.2395C171.413 22.4833 171.687 22.9087 171.714 23.5157C171.714 24.0251 171.519 24.4369 171.129 24.7513C170.749 25.0656 170.256 25.2227 169.649 25.2227C169.102 25.2227 168.636 25.0954 168.251 24.8407C167.866 24.5914 167.623 24.2662 167.52 23.8652L168.251 23.6457C168.294 23.895 168.446 24.1037 168.706 24.2717C168.972 24.4342 169.286 24.5155 169.649 24.5155C170.029 24.5155 170.346 24.4288 170.6 24.2554C170.855 24.0766 170.982 23.849 170.982 23.5726C170.982 23.2908 170.847 23.0794 170.576 22.9385C170.338 22.8139 170.064 22.7136 169.755 22.6378L169.414 22.5484L169.097 22.4508L168.763 22.337C168.747 22.3316 168.723 22.3235 168.69 22.3126C168.663 22.2964 168.628 22.2801 168.584 22.2639C168.541 22.2422 168.503 22.2232 168.471 22.207C168.335 22.1419 168.175 22.0254 167.991 21.8574C167.807 21.6732 167.698 21.3805 167.666 20.9795C167.666 20.4972 167.845 20.107 168.202 19.809C168.565 19.5055 169.023 19.3538 169.576 19.3538C170.075 19.3538 170.5 19.473 170.852 19.7114C171.21 19.9445 171.438 20.2479 171.535 20.6219ZM172.204 21.5079V20.9064H172.887V20.061H173.57V20.9064H174.748V21.5079H173.57V23.8083C173.57 23.998 173.627 24.1579 173.741 24.2879C173.86 24.4126 174.006 24.4749 174.179 24.4749H174.748V25.1333H174.131C173.778 25.1333 173.483 25.0141 173.245 24.7756C173.006 24.5372 172.887 24.2418 172.887 23.8896V21.5079H172.204ZM179.694 23.2556H176.06C176.109 23.6349 176.277 23.9519 176.564 24.2066C176.846 24.4559 177.193 24.5805 177.605 24.5805C178.141 24.5805 178.559 24.3773 178.857 23.9709L179.523 24.1822C179.328 24.5074 179.06 24.7621 178.719 24.9463C178.383 25.1306 178.011 25.2227 177.605 25.2227C176.965 25.2227 176.429 25.0141 175.995 24.5968C175.567 24.1741 175.353 23.6485 175.353 23.0198C175.353 22.3912 175.562 21.8683 175.979 21.451C176.396 21.0283 176.914 20.8169 177.532 20.8169C178.155 20.8169 178.672 21.0283 179.084 21.451C179.502 21.8683 179.71 22.3912 179.71 23.0198C179.71 23.0361 179.705 23.1147 179.694 23.2556ZM176.069 22.7028H179.003C178.938 22.3397 178.767 22.039 178.491 21.8005C178.22 21.5675 177.895 21.451 177.515 21.451C177.147 21.451 176.83 21.5675 176.564 21.8005C176.299 22.0335 176.134 22.3343 176.069 22.7028ZM181.265 26.9623H180.582V20.9064H181.265V21.5079C181.66 21.0473 182.172 20.8169 182.801 20.8169C183.397 20.8169 183.893 21.0283 184.288 21.451C184.689 21.8683 184.89 22.3912 184.89 23.0198C184.89 23.643 184.689 24.1687 184.288 24.5968C183.887 25.0141 183.392 25.2227 182.801 25.2227C182.172 25.2227 181.66 24.9924 181.265 24.5318V26.9623ZM182.728 21.4998C182.321 21.4998 181.977 21.6461 181.695 21.9387C181.419 22.2259 181.281 22.5863 181.281 23.0198C181.281 23.4534 181.419 23.8164 181.695 24.1091C181.983 24.3963 182.327 24.5399 182.728 24.5399C183.14 24.5399 183.484 24.3963 183.76 24.1091C184.042 23.8219 184.183 23.4588 184.183 23.0198C184.183 22.5809 184.042 22.2205 183.76 21.9387C183.484 21.6461 183.14 21.4998 182.728 21.4998Z" fill="white"/>
<path d="M200.963 103.914H198.833V103.232H203.824V103.914H201.694V108.922H200.963V103.914ZM204.652 106.532V108.922H203.97V104.695H204.652V105.41C204.972 104.874 205.473 104.605 206.156 104.605H206.27V105.361C206.183 105.329 206.083 105.312 205.969 105.312C205.595 105.312 205.284 105.429 205.034 105.662C204.78 105.9 204.652 106.19 204.652 106.532ZM208.681 104.605C209.315 104.605 209.83 104.836 210.225 105.296V104.695H210.908V108.922H210.225V108.32C209.83 108.781 209.315 109.011 208.681 109.011C208.09 109.011 207.594 108.802 207.193 108.385C206.798 107.968 206.6 107.442 206.6 106.808C206.6 106.174 206.798 105.651 207.193 105.239C207.589 104.817 208.085 104.605 208.681 104.605ZM208.754 105.288C208.348 105.288 208.003 105.434 207.722 105.727C207.445 106.014 207.307 106.375 207.307 106.808C207.307 107.242 207.445 107.605 207.722 107.897C208.009 108.185 208.353 108.328 208.754 108.328C209.166 108.328 209.51 108.185 209.786 107.897C210.068 107.61 210.209 107.247 210.209 106.808C210.209 106.369 210.068 106.009 209.786 105.727C209.51 105.434 209.166 105.288 208.754 105.288ZM213.92 104.605C214.554 104.605 215.069 104.836 215.465 105.296V102.825H216.147V108.922H215.465V108.32C215.069 108.781 214.554 109.011 213.92 109.011C213.329 109.011 212.834 108.802 212.433 108.385C212.037 107.968 211.839 107.442 211.839 106.808C211.839 106.174 212.037 105.651 212.433 105.239C212.828 104.817 213.324 104.605 213.92 104.605ZM213.993 105.288C213.587 105.288 213.243 105.434 212.961 105.727C212.685 106.014 212.546 106.375 212.546 106.808C212.546 107.242 212.685 107.605 212.961 107.897C213.248 108.185 213.592 108.328 213.993 108.328C214.405 108.328 214.749 108.185 215.026 107.897C215.307 107.61 215.448 107.247 215.448 106.808C215.448 106.369 215.307 106.009 215.026 105.727C214.749 105.434 214.405 105.288 213.993 105.288ZM217.981 108.922H217.298V104.695H217.981V108.922ZM217.298 104.004C217.211 103.912 217.168 103.798 217.168 103.662C217.168 103.527 217.211 103.416 217.298 103.329C217.39 103.237 217.504 103.191 217.639 103.191C217.775 103.191 217.889 103.237 217.981 103.329C218.073 103.416 218.119 103.527 218.119 103.662C218.119 103.798 218.073 103.912 217.981 104.004C217.889 104.09 217.775 104.134 217.639 104.134C217.504 104.134 217.39 104.09 217.298 104.004ZM219.132 108.922V104.695H219.814V105.402C220.15 104.871 220.652 104.605 221.318 104.605C221.806 104.605 222.21 104.765 222.529 105.085C222.855 105.399 223.017 105.8 223.017 106.288V108.922H222.334V106.467C222.334 106.125 222.218 105.838 221.985 105.605C221.757 105.372 221.473 105.256 221.131 105.256C220.763 105.256 220.451 105.375 220.196 105.613C219.942 105.852 219.814 106.142 219.814 106.483V108.922H219.132ZM226.018 109.011C225.427 109.011 224.931 108.802 224.53 108.385C224.135 107.968 223.937 107.442 223.937 106.808C223.937 106.174 224.135 105.651 224.53 105.239C224.926 104.817 225.422 104.605 226.018 104.605C226.652 104.605 227.167 104.836 227.562 105.296V104.695H228.245V108.743C228.245 109.344 228.039 109.843 227.627 110.238C227.21 110.64 226.703 110.84 226.107 110.84C225.695 110.84 225.308 110.737 224.945 110.531C224.593 110.325 224.335 110.065 224.173 109.751L224.856 109.531C224.969 109.716 225.137 109.865 225.359 109.978C225.587 110.098 225.828 110.157 226.083 110.157C226.5 110.157 226.852 110.022 227.14 109.751C227.427 109.48 227.568 109.144 227.562 108.743V108.32C227.167 108.781 226.652 109.011 226.018 109.011ZM226.091 105.288C225.685 105.288 225.341 105.434 225.059 105.727C224.782 106.014 224.644 106.375 224.644 106.808C224.644 107.242 224.782 107.605 225.059 107.897C225.346 108.185 225.69 108.328 226.091 108.328C226.503 108.328 226.847 108.185 227.123 107.897C227.405 107.61 227.546 107.247 227.546 106.808C227.546 106.369 227.405 106.009 227.123 105.727C226.847 105.434 226.503 105.288 226.091 105.288Z" fill="white"/>
<path d="M320.11 22.0017H317.98V21.3189H322.971V22.0017H320.841V27.009H320.11V22.0017ZM323.768 27.009V20.9125H324.45V23.4893C324.786 22.9582 325.29 22.6927 325.962 22.6927C326.45 22.6927 326.859 22.8525 327.19 23.1723C327.515 23.4866 327.677 23.8876 327.677 24.3753V27.009H326.995V24.5542C326.995 24.2127 326.878 23.9255 326.645 23.6925C326.412 23.4595 326.122 23.343 325.775 23.343C325.401 23.343 325.087 23.4622 324.832 23.7006C324.578 23.9391 324.45 24.229 324.45 24.5704V27.009H323.768ZM329.499 27.009H328.816V22.7821H329.499V27.009ZM328.816 22.0911C328.73 21.999 328.686 21.8852 328.686 21.7497C328.686 21.6143 328.73 21.5032 328.816 21.4165C328.908 21.3243 329.022 21.2783 329.158 21.2783C329.293 21.2783 329.407 21.3243 329.499 21.4165C329.591 21.5032 329.637 21.6143 329.637 21.7497C329.637 21.8852 329.591 21.999 329.499 22.0911C329.407 22.1779 329.293 22.2212 329.158 22.2212C329.022 22.2212 328.908 22.1779 328.816 22.0911ZM331.333 24.6192V27.009H330.65V22.7821H331.333V23.4974C331.653 22.9609 332.154 22.6927 332.837 22.6927H332.95V23.4486C332.864 23.4161 332.763 23.3999 332.65 23.3999C332.276 23.3999 331.964 23.5164 331.715 23.7494C331.46 23.9879 331.333 24.2778 331.333 24.6192ZM335.361 22.6927C335.995 22.6927 336.51 22.923 336.906 23.3836V20.9125H337.589V27.009H336.906V26.4075C336.51 26.8681 335.995 27.0984 335.361 27.0984C334.771 27.0984 334.275 26.8898 333.874 26.4725C333.478 26.0553 333.28 25.5296 333.28 24.8956C333.28 24.2615 333.478 23.7386 333.874 23.3267C334.269 22.904 334.765 22.6927 335.361 22.6927ZM335.434 23.3755C335.028 23.3755 334.684 23.5218 334.402 23.8144C334.126 24.1017 333.988 24.462 333.988 24.8956C333.988 25.3291 334.126 25.6922 334.402 25.9848C334.689 26.272 335.033 26.4156 335.434 26.4156C335.846 26.4156 336.19 26.272 336.467 25.9848C336.749 25.6976 336.889 25.3345 336.889 24.8956C336.889 24.4566 336.749 24.0962 336.467 23.8144C336.19 23.5218 335.846 23.3755 335.434 23.3755ZM344.823 22.4976L344.099 22.7089C344.05 22.4922 343.91 22.3106 343.677 22.1643C343.449 22.0126 343.181 21.9367 342.872 21.9367C342.53 21.9367 342.249 22.0207 342.026 22.1887C341.804 22.3513 341.693 22.5572 341.693 22.8065C341.693 23.0774 341.845 23.2888 342.148 23.4405C342.387 23.5543 342.753 23.6735 343.246 23.7982C343.647 23.9011 343.958 24.0068 344.181 24.1152C344.701 24.3591 344.974 24.7845 345.002 25.3914C345.002 25.9008 344.806 26.3127 344.416 26.627C344.037 26.9413 343.544 27.0984 342.937 27.0984C342.389 27.0984 341.923 26.9711 341.539 26.7164C341.154 26.4671 340.91 26.142 340.807 25.741L341.539 25.5215C341.582 25.7708 341.734 25.9794 341.994 26.1474C342.259 26.31 342.574 26.3912 342.937 26.3912C343.316 26.3912 343.633 26.3045 343.888 26.1311C344.143 25.9523 344.27 25.7247 344.27 25.4483C344.27 25.1665 344.134 24.9552 343.863 24.8143C343.625 24.6896 343.351 24.5894 343.042 24.5135L342.701 24.4241L342.384 24.3266L342.051 24.2127C342.035 24.2073 342.01 24.1992 341.978 24.1884C341.951 24.1721 341.915 24.1558 341.872 24.1396C341.829 24.1179 341.791 24.0989 341.758 24.0827C341.623 24.0177 341.463 23.9011 341.279 23.7332C341.094 23.5489 340.986 23.2563 340.953 22.8552C340.953 22.3729 341.132 21.9828 341.49 21.6847C341.853 21.3812 342.311 21.2295 342.864 21.2295C343.362 21.2295 343.788 21.3487 344.14 21.5872C344.498 21.8202 344.725 22.1237 344.823 22.4976ZM345.492 23.3836V22.7821H346.175V21.9367H346.857V22.7821H348.036V23.3836H346.857V25.684C346.857 25.8737 346.914 26.0336 347.028 26.1636C347.147 26.2883 347.294 26.3506 347.467 26.3506H348.036V27.009H347.418C347.066 27.009 346.771 26.8898 346.532 26.6514C346.294 26.4129 346.175 26.1176 346.175 25.7653V23.3836H345.492ZM352.982 25.1313H349.348C349.397 25.5106 349.565 25.8277 349.852 26.0824C350.134 26.3316 350.481 26.4563 350.892 26.4563C351.429 26.4563 351.846 26.2531 352.144 25.8466L352.811 26.058C352.616 26.3831 352.347 26.6378 352.006 26.8221C351.67 27.0063 351.299 27.0984 350.892 27.0984C350.253 27.0984 349.716 26.8898 349.283 26.4725C348.855 26.0498 348.641 25.5242 348.641 24.8956C348.641 24.2669 348.849 23.744 349.267 23.3267C349.684 22.904 350.201 22.6927 350.819 22.6927C351.442 22.6927 351.96 22.904 352.372 23.3267C352.789 23.744 352.998 24.2669 352.998 24.8956C352.998 24.9118 352.992 24.9904 352.982 25.1313ZM349.356 24.5785H352.291C352.226 24.2155 352.055 23.9147 351.778 23.6763C351.507 23.4432 351.182 23.3267 350.803 23.3267C350.435 23.3267 350.117 23.4432 349.852 23.6763C349.586 23.9093 349.421 24.21 349.356 24.5785ZM354.552 28.838H353.869V22.7821H354.552V23.3836C354.948 22.923 355.46 22.6927 356.088 22.6927C356.685 22.6927 357.18 22.904 357.576 23.3267C357.977 23.744 358.177 24.2669 358.177 24.8956C358.177 25.5188 357.977 26.0444 357.576 26.4725C357.175 26.8898 356.679 27.0984 356.088 27.0984C355.46 27.0984 354.948 26.8681 354.552 26.4075V28.838ZM356.015 23.3755C355.609 23.3755 355.265 23.5218 354.983 23.8144C354.707 24.1017 354.568 24.462 354.568 24.8956C354.568 25.3291 354.707 25.6922 354.983 25.9848C355.27 26.272 355.614 26.4156 356.015 26.4156C356.427 26.4156 356.771 26.272 357.048 25.9848C357.329 25.6976 357.47 25.3345 357.47 24.8956C357.47 24.4566 357.329 24.0962 357.048 23.8144C356.771 23.5218 356.427 23.3755 356.015 23.3755Z" fill="white"/>
<path d="M138.489 243.047H141.325V243.519H138.995V244.758H141.038V245.23H138.995V246.513H141.353V246.986H138.489V243.047ZM143.173 243.998C143.612 243.998 143.968 244.157 144.242 244.476V244.06H144.715V246.986H144.242V246.57C143.968 246.889 143.612 247.048 143.173 247.048C142.764 247.048 142.421 246.904 142.143 246.615C141.869 246.326 141.732 245.962 141.732 245.523C141.732 245.084 141.869 244.722 142.143 244.437C142.417 244.144 142.76 243.998 143.173 243.998ZM143.224 244.471C142.942 244.471 142.704 244.572 142.509 244.774C142.318 244.973 142.222 245.223 142.222 245.523C142.222 245.823 142.318 246.074 142.509 246.277C142.708 246.476 142.946 246.575 143.224 246.575C143.509 246.575 143.747 246.476 143.938 246.277C144.133 246.078 144.231 245.827 144.231 245.523C144.231 245.219 144.133 244.97 143.938 244.774C143.747 244.572 143.509 244.471 143.224 244.471ZM145.984 245.332V246.986H145.511V244.06H145.984V244.555C146.206 244.184 146.553 243.998 147.025 243.998H147.104V244.521C147.044 244.499 146.975 244.487 146.896 244.487C146.637 244.487 146.421 244.568 146.249 244.729C146.072 244.894 145.984 245.095 145.984 245.332ZM147.622 246.986V244.06H148.094V244.549C148.327 244.182 148.674 243.998 149.136 243.998C149.473 243.998 149.753 244.109 149.974 244.33C150.199 244.547 150.312 244.825 150.312 245.163V246.986H149.839V245.287C149.839 245.05 149.758 244.851 149.597 244.69C149.439 244.529 149.243 244.448 149.006 244.448C148.751 244.448 148.535 244.531 148.359 244.696C148.183 244.861 148.094 245.061 148.094 245.298V246.986H147.622ZM151.573 246.986H151.101V244.06H151.573V246.986ZM151.101 243.581C151.041 243.518 151.011 243.439 151.011 243.345C151.011 243.251 151.041 243.174 151.101 243.114C151.164 243.051 151.243 243.019 151.337 243.019C151.431 243.019 151.509 243.051 151.573 243.114C151.637 243.174 151.669 243.251 151.669 243.345C151.669 243.439 151.637 243.518 151.573 243.581C151.509 243.641 151.431 243.671 151.337 243.671C151.243 243.671 151.164 243.641 151.101 243.581ZM152.37 246.986V244.06H152.843V244.549C153.075 244.182 153.422 243.998 153.884 243.998C154.222 243.998 154.501 244.109 154.722 244.33C154.947 244.547 155.06 244.825 155.06 245.163V246.986H154.587V245.287C154.587 245.05 154.507 244.851 154.345 244.69C154.188 244.529 153.991 244.448 153.754 244.448C153.499 244.448 153.284 244.531 153.107 244.696C152.931 244.861 152.843 245.061 152.843 245.298V246.986H152.37ZM157.138 247.048C156.729 247.048 156.385 246.904 156.108 246.615C155.834 246.326 155.697 245.962 155.697 245.523C155.697 245.084 155.834 244.722 156.108 244.437C156.382 244.144 156.725 243.998 157.138 243.998C157.576 243.998 157.933 244.157 158.207 244.476V244.06H158.68V246.862C158.68 247.279 158.537 247.624 158.252 247.898C157.963 248.175 157.612 248.314 157.199 248.314C156.914 248.314 156.646 248.243 156.395 248.1C156.151 247.958 155.973 247.778 155.86 247.56L156.333 247.408C156.412 247.536 156.528 247.639 156.682 247.718C156.839 247.8 157.006 247.841 157.183 247.841C157.471 247.841 157.715 247.748 157.914 247.56C158.113 247.373 158.211 247.14 158.207 246.862V246.57C157.933 246.889 157.576 247.048 157.138 247.048ZM157.188 244.471C156.907 244.471 156.669 244.572 156.473 244.774C156.282 244.973 156.186 245.223 156.186 245.523C156.186 245.823 156.282 246.074 156.473 246.277C156.672 246.476 156.911 246.575 157.188 246.575C157.473 246.575 157.712 246.476 157.903 246.277C158.098 246.078 158.196 245.827 158.196 245.523C158.196 245.219 158.098 244.97 157.903 244.774C157.712 244.572 157.473 244.471 157.188 244.471Z" fill="white"/>
<path d="M276.637 245.113L276.136 245.26C276.102 245.11 276.005 244.984 275.843 244.883C275.686 244.777 275.5 244.725 275.286 244.725C275.05 244.725 274.855 244.783 274.701 244.899C274.547 245.012 274.47 245.155 274.47 245.327C274.47 245.515 274.575 245.661 274.785 245.766C274.95 245.845 275.204 245.927 275.545 246.014C275.823 246.085 276.038 246.158 276.192 246.233C276.552 246.402 276.742 246.696 276.761 247.117C276.761 247.469 276.626 247.754 276.356 247.972C276.093 248.19 275.751 248.298 275.331 248.298C274.952 248.298 274.63 248.21 274.363 248.034C274.097 247.861 273.928 247.636 273.857 247.359L274.363 247.207C274.393 247.379 274.498 247.524 274.678 247.64C274.862 247.753 275.08 247.809 275.331 247.809C275.594 247.809 275.813 247.749 275.99 247.629C276.166 247.505 276.254 247.347 276.254 247.156C276.254 246.961 276.16 246.815 275.973 246.717C275.808 246.631 275.618 246.561 275.404 246.509L275.168 246.447L274.949 246.379L274.718 246.301C274.707 246.297 274.69 246.291 274.667 246.284C274.648 246.273 274.624 246.261 274.594 246.25C274.564 246.235 274.538 246.222 274.515 246.211C274.421 246.166 274.311 246.085 274.183 245.969C274.056 245.841 273.981 245.639 273.958 245.361C273.958 245.027 274.082 244.757 274.33 244.551C274.581 244.34 274.898 244.235 275.281 244.235C275.626 244.235 275.92 244.318 276.164 244.483C276.412 244.644 276.569 244.854 276.637 245.113ZM277.1 245.727V245.31H277.573V244.725H278.045V245.31H278.861V245.727H278.045V247.319C278.045 247.451 278.085 247.561 278.164 247.651C278.246 247.738 278.348 247.781 278.468 247.781H278.861V248.237H278.434C278.19 248.237 277.985 248.154 277.82 247.989C277.655 247.824 277.573 247.619 277.573 247.376V245.727H277.1ZM280.721 245.248C281.16 245.248 281.516 245.408 281.79 245.727V245.31H282.263V248.237H281.79V247.82C281.516 248.139 281.16 248.298 280.721 248.298C280.312 248.298 279.969 248.154 279.691 247.865C279.417 247.576 279.28 247.212 279.28 246.773C279.28 246.334 279.417 245.972 279.691 245.687C279.965 245.395 280.308 245.248 280.721 245.248ZM280.771 245.721C280.49 245.721 280.252 245.822 280.057 246.025C279.865 246.224 279.77 246.473 279.77 246.773C279.77 247.074 279.865 247.325 280.057 247.527C280.256 247.726 280.494 247.826 280.771 247.826C281.057 247.826 281.295 247.726 281.486 247.527C281.681 247.329 281.779 247.077 281.779 246.773C281.779 246.47 281.681 246.22 281.486 246.025C281.295 245.822 281.057 245.721 280.771 245.721ZM283.059 248.237V244.016H283.532V248.237H283.059ZM285.462 248.237H284.871L283.555 246.723L284.759 245.31H285.338L284.14 246.723L285.462 248.237ZM286.428 248.237H285.956V245.31H286.428V248.237ZM285.956 244.832C285.895 244.768 285.865 244.689 285.865 244.596C285.865 244.502 285.895 244.425 285.956 244.365C286.019 244.301 286.098 244.269 286.192 244.269C286.286 244.269 286.364 244.301 286.428 244.365C286.492 244.425 286.524 244.502 286.524 244.596C286.524 244.689 286.492 244.768 286.428 244.832C286.364 244.892 286.286 244.922 286.192 244.922C286.098 244.922 286.019 244.892 285.956 244.832ZM287.225 248.237V245.31H287.698V245.8C287.93 245.432 288.277 245.248 288.739 245.248C289.076 245.248 289.356 245.359 289.577 245.58C289.802 245.798 289.915 246.076 289.915 246.413V248.237H289.442V246.537C289.442 246.301 289.362 246.102 289.2 245.941C289.043 245.779 288.846 245.699 288.609 245.699C288.354 245.699 288.139 245.781 287.962 245.946C287.786 246.111 287.698 246.312 287.698 246.548V248.237H287.225ZM291.992 248.298C291.584 248.298 291.24 248.154 290.963 247.865C290.689 247.576 290.552 247.212 290.552 246.773C290.552 246.334 290.689 245.972 290.963 245.687C291.237 245.395 291.58 245.248 291.992 245.248C292.431 245.248 292.788 245.408 293.062 245.727V245.31H293.534V248.113C293.534 248.529 293.392 248.874 293.107 249.148C292.818 249.426 292.467 249.565 292.054 249.565C291.769 249.565 291.501 249.493 291.25 249.351C291.006 249.208 290.828 249.028 290.715 248.811L291.188 248.659C291.267 248.786 291.383 248.889 291.537 248.968C291.694 249.051 291.861 249.092 292.038 249.092C292.326 249.092 292.57 248.998 292.769 248.811C292.968 248.623 293.065 248.39 293.062 248.113V247.82C292.788 248.139 292.431 248.298 291.992 248.298ZM292.043 245.721C291.762 245.721 291.524 245.822 291.328 246.025C291.137 246.224 291.041 246.473 291.041 246.773C291.041 247.074 291.137 247.325 291.328 247.527C291.527 247.726 291.766 247.826 292.043 247.826C292.328 247.826 292.567 247.726 292.758 247.527C292.953 247.329 293.05 247.077 293.05 246.773C293.05 246.47 292.953 246.22 292.758 246.025C292.567 245.822 292.328 245.721 292.043 245.721Z" fill="white"/>
<defs>
<filter id="filter0_b_701_10" x="-5.62765" y="-5.62759" width="395.182" height="283.255" filterUnits="userSpaceOnUse" color-interpolation-filters="sRGB">
<feFlood flood-opacity="0" result="BackgroundImageFix"/>
<feGaussianBlur in="BackgroundImageFix" stdDeviation="2.81379"/>
<feComposite in2="SourceAlpha" operator="in" result="effect1_backgroundBlur_701_10"/>
<feBlend mode="normal" in="SourceGraphic" in2="effect1_backgroundBlur_701_10" result="shape"/>
</filter>
<radialGradient id="paint0_radial_701_10" cx="0" cy="0" r="1" gradientUnits="userSpaceOnUse" gradientTransform="translate(204.469 114.74) rotate(92.3003) scale(148 208.901)">
<stop stop-color="#40539D"/>
<stop offset="1" stop-color="#605CFF" stop-opacity="0"/>
</radialGradient>
</defs>
</svg>
